<svg width="57" height="66" viewBox="0 0 57 66" fill="none" xmlns="http://www.w3.org/2000/svg">
<path d="M16.91 34.5125C14.8451 35.084 13.005 36.44 11.6834 38.364C10.3618 40.288 9.63493 42.6692 9.61879 45.1275V53.68C9.61555 53.8544 9.64282 54.0277 9.69897 54.1895C9.75511 54.3514 9.83896 54.4984 9.94547 54.6217C10.052 54.7451 10.1789 54.8421 10.3187 54.9072C10.4585 54.9722 10.6082 55.0037 10.7588 55L18.4538 54.835C20.1729 54.8382 21.8567 54.2697 23.305 53.1973C24.7533 52.1248 25.9052 50.5933 26.6238 48.785C27.3611 47.0807 27.6641 45.1685 27.4973 43.2721C27.3305 41.3758 26.7008 39.5736 25.6818 38.0764C24.6629 36.5793 23.2968 35.449 21.7434 34.8179C20.19 34.1867 18.5135 34.0808 16.91 34.5125Z" fill="#00743A"/>
<path d="M45.7426 12.265C44.746 11.355 43.4915 10.9097 42.2258 11.0166C40.96 11.1234 39.7746 11.7748 38.9026 12.8425L23.7501 30.47C23.5441 30.7118 23.4286 31.0378 23.4286 31.3775C23.4286 31.7171 23.5441 32.0431 23.7501 32.285L29.0938 38.5C29.3027 38.7385 29.5842 38.8722 29.8776 38.8722C30.1709 38.8722 30.4525 38.7385 30.6613 38.5L46.0751 20.7075C46.5317 20.1763 46.8928 19.5455 47.1374 18.8516C47.382 18.1577 47.5053 17.4144 47.5001 16.665C47.5169 15.8248 47.3672 14.9914 47.0626 14.2287C46.7579 13.4659 46.3064 12.7942 45.7426 12.265Z" fill="#00743A"/>
</svg>
