<svg width="54" height="41" viewBox="0 0 54 41" fill="none" xmlns="http://www.w3.org/2000/svg">
<path d="M42.75 15.375C41.3574 15.378 40.0001 15.7079 38.8641 16.3196C37.7282 16.9313 36.8692 17.7948 36.405 18.7917H6.75C6.15326 18.7917 5.58097 18.9717 5.15901 19.292C4.73705 19.6124 4.5 20.0469 4.5 20.5C4.5 20.9531 4.73705 21.3876 5.15901 21.708C5.58097 22.0284 6.15326 22.2084 6.75 22.2084H36.405C36.8178 23.0948 37.5437 23.8779 38.5035 24.472C39.4632 25.0662 40.6196 25.4484 41.8463 25.5769C43.073 25.7054 44.3226 25.5752 45.4583 25.2006C46.5941 24.826 47.5723 24.2215 48.2858 23.453C48.9993 22.6846 49.4206 21.782 49.5037 20.8439C49.5868 19.9058 49.3285 18.9685 48.7569 18.1344C48.1853 17.3004 47.3226 16.6018 46.2631 16.1151C45.2037 15.6284 43.9883 15.3724 42.75 15.375ZM42.75 22.2084C42.305 22.2084 41.87 22.1082 41.5 21.9204C41.13 21.7327 40.8416 21.4659 40.6713 21.1538C40.501 20.8416 40.4564 20.4981 40.5432 20.1667C40.6301 19.8354 40.8443 19.531 41.159 19.292C41.4737 19.0531 41.8746 18.8904 42.3111 18.8245C42.7475 18.7586 43.1999 18.7924 43.611 18.9217C44.0222 19.051 44.3736 19.27 44.6208 19.5509C44.868 19.8319 45 20.1621 45 20.5C45 20.9531 44.763 21.3876 44.341 21.708C43.919 22.0284 43.3467 22.2084 42.75 22.2084Z" fill="#0082B3"/>
<path d="M6.75 11.9582H9.405C9.87796 12.9476 10.7407 13.8024 11.8759 14.4065C13.0111 15.0106 14.3637 15.3347 15.75 15.3347C17.1363 15.3347 18.4889 15.0106 19.6241 14.4065C20.7593 13.8024 21.622 12.9476 22.095 11.9582H47.25C47.8467 11.9582 48.419 11.7782 48.841 11.4578C49.2629 11.1375 49.5 10.7029 49.5 10.2499C49.5 9.79678 49.2629 9.36225 48.841 9.04188C48.419 8.72151 47.8467 8.54152 47.25 8.54152H22.095C21.622 7.55213 20.7593 6.69731 19.6241 6.09321C18.4889 5.48911 17.1363 5.16504 15.75 5.16504C14.3637 5.16504 13.0111 5.48911 11.8759 6.09321C10.7407 6.69731 9.87796 7.55213 9.405 8.54152H6.75C6.15326 8.54152 5.58097 8.72151 5.15901 9.04188C4.73705 9.36225 4.5 9.79678 4.5 10.2499C4.5 10.7029 4.73705 11.1375 5.15901 11.4578C5.58097 11.7782 6.15326 11.9582 6.75 11.9582ZM15.75 8.54152C16.195 8.54152 16.63 8.64171 17 8.82943C17.37 9.01714 17.6584 9.28395 17.8287 9.5961C17.999 9.90826 18.0436 10.2517 17.9568 10.5831C17.87 10.9145 17.6557 11.2189 17.341 11.4578C17.0263 11.6967 16.6254 11.8594 16.189 11.9254C15.7525 11.9913 15.3001 11.9574 14.889 11.8281C14.4778 11.6988 14.1264 11.4799 13.8792 11.199C13.632 10.918 13.5 10.5877 13.5 10.2499C13.5 9.79678 13.7371 9.36225 14.159 9.04188C14.581 8.72151 15.1533 8.54152 15.75 8.54152Z" fill="#0082B3"/>
<path d="M47.25 29.0415H31.095C30.622 28.0521 29.7593 27.1973 28.6241 26.5932C27.4889 25.9891 26.1363 25.665 24.75 25.665C23.3637 25.665 22.0111 25.9891 20.8759 26.5932C19.7407 27.1973 18.878 28.0521 18.405 29.0415H6.75C6.15326 29.0415 5.58097 29.2215 5.15901 29.5419C4.73705 29.8623 4.5 30.2968 4.5 30.7499C4.5 31.2029 4.73705 31.6375 5.15901 31.9578C5.58097 32.2782 6.15326 32.4582 6.75 32.4582H18.405C18.878 33.4476 19.7407 34.3024 20.8759 34.9065C22.0111 35.5106 23.3637 35.8347 24.75 35.8347C26.1363 35.8347 27.4889 35.5106 28.6241 34.9065C29.7593 34.3024 30.622 33.4476 31.095 32.4582H47.25C47.8467 32.4582 48.419 32.2782 48.841 31.9578C49.2629 31.6375 49.5 31.2029 49.5 30.7499C49.5 30.2968 49.2629 29.8623 48.841 29.5419C48.419 29.2215 47.8467 29.0415 47.25 29.0415ZM24.75 32.4582C24.305 32.4582 23.87 32.358 23.5 32.1703C23.13 31.9826 22.8416 31.7158 22.6713 31.4036C22.501 31.0914 22.4564 30.748 22.5432 30.4166C22.63 30.0852 22.8443 29.7808 23.159 29.5419C23.4737 29.303 23.8746 29.1403 24.311 29.0743C24.7475 29.0084 25.1999 29.0423 25.611 29.1716C26.0222 29.3009 26.3736 29.5198 26.6208 29.8008C26.868 30.0817 27 30.412 27 30.7499C27 31.2029 26.7629 31.6375 26.341 31.9578C25.919 32.2782 25.3467 32.4582 24.75 32.4582Z" fill="#0082B3"/>
</svg>
